<svg width="296" height="169" viewBox="0 0 296 169" fill="none" xmlns="http://www.w3.org/2000/svg">
<path d="M0 53.5C0 23.9528 23.9528 0 53.5 0H242.5C272.047 0 296 23.9528 296 53.5C296 83.0472 272.047 107 242.5 107H134.899C131.043 107 127.343 108.521 124.602 111.233L104.224 131.393C96.6568 138.879 84.3733 130.214 88.8873 120.574C91.8472 114.254 87.2342 107 80.2549 107H37.024C16.5762 107 0 90.4238 0 69.976V53.5Z" fill="white"/>
<path d="M101 38.296V41.176H89.732V64H86.492V38.296H101ZM109.364 44.38C111.716 44.38 113.456 44.896 114.584 45.928C115.712 46.96 116.276 48.604 116.276 50.86V64H113.972L113.36 61.264H113.216C112.664 61.96 112.088 62.548 111.488 63.028C110.912 63.484 110.24 63.82 109.472 64.036C108.728 64.252 107.816 64.36 106.736 64.36C105.584 64.36 104.54 64.156 103.604 63.748C102.692 63.34 101.972 62.716 101.444 61.876C100.916 61.012 100.652 59.932 100.652 58.636C100.652 56.716 101.408 55.24 102.92 54.208C104.432 53.152 106.76 52.576 109.904 52.48L113.18 52.372V51.22C113.18 49.612 112.832 48.496 112.136 47.872C111.44 47.248 110.456 46.936 109.184 46.936C108.176 46.936 107.216 47.092 106.304 47.404C105.392 47.692 104.54 48.028 103.748 48.412L102.776 46.036C103.616 45.58 104.612 45.196 105.764 44.884C106.916 44.548 108.116 44.38 109.364 44.38ZM110.3 54.676C107.9 54.772 106.232 55.156 105.296 55.828C104.384 56.5 103.928 57.448 103.928 58.672C103.928 59.752 104.252 60.544 104.9 61.048C105.572 61.552 106.424 61.804 107.456 61.804C109.088 61.804 110.444 61.36 111.524 60.472C112.604 59.56 113.144 58.168 113.144 56.296V54.568L110.3 54.676ZM137.752 49.564C137.752 50.764 137.392 51.7 136.672 52.372C135.952 53.044 135.028 53.5 133.9 53.74V53.884C135.1 54.052 136.144 54.484 137.032 55.18C137.92 55.852 138.364 56.908 138.364 58.348C138.364 59.164 138.208 59.92 137.896 60.616C137.608 61.312 137.152 61.912 136.528 62.416C135.904 62.92 135.1 63.316 134.116 63.604C133.132 63.868 131.944 64 130.552 64H122.236V44.704H130.516C131.884 44.704 133.108 44.86 134.188 45.172C135.292 45.46 136.156 45.964 136.78 46.684C137.428 47.38 137.752 48.34 137.752 49.564ZM135.088 58.348C135.088 57.244 134.668 56.452 133.828 55.972C132.988 55.492 131.752 55.252 130.12 55.252H125.404V61.444H130.192C131.776 61.444 132.988 61.216 133.828 60.76C134.668 60.28 135.088 59.476 135.088 58.348ZM134.548 49.96C134.548 49.048 134.212 48.388 133.54 47.98C132.892 47.548 131.824 47.332 130.336 47.332H125.404V52.624H129.76C131.32 52.624 132.508 52.408 133.324 51.976C134.14 51.544 134.548 50.872 134.548 49.96Z" fill="black"/>
<path d="M170.832 44.704V47.368H162.228V64H159.06V44.704H170.832ZM181.942 44.38C184.294 44.38 186.034 44.896 187.162 45.928C188.29 46.96 188.854 48.604 188.854 50.86V64H186.55L185.938 61.264H185.794C185.242 61.96 184.666 62.548 184.066 63.028C183.49 63.484 182.818 63.82 182.05 64.036C181.306 64.252 180.394 64.36 179.314 64.36C178.162 64.36 177.118 64.156 176.182 63.748C175.27 63.34 174.55 62.716 174.022 61.876C173.494 61.012 173.23 59.932 173.23 58.636C173.23 56.716 173.986 55.24 175.498 54.208C177.01 53.152 179.338 52.576 182.482 52.48L185.758 52.372V51.22C185.758 49.612 185.41 48.496 184.714 47.872C184.018 47.248 183.034 46.936 181.762 46.936C180.754 46.936 179.794 47.092 178.882 47.404C177.97 47.692 177.118 48.028 176.326 48.412L175.354 46.036C176.194 45.58 177.19 45.196 178.342 44.884C179.494 44.548 180.694 44.38 181.942 44.38ZM182.878 54.676C180.478 54.772 178.81 55.156 177.874 55.828C176.962 56.5 176.506 57.448 176.506 58.672C176.506 59.752 176.83 60.544 177.478 61.048C178.15 61.552 179.002 61.804 180.034 61.804C181.666 61.804 183.022 61.36 184.102 60.472C185.182 59.56 185.722 58.168 185.722 56.296V54.568L182.878 54.676ZM210.33 49.564C210.33 50.764 209.97 51.7 209.25 52.372C208.53 53.044 207.606 53.5 206.478 53.74V53.884C207.678 54.052 208.722 54.484 209.61 55.18C210.498 55.852 210.942 56.908 210.942 58.348C210.942 59.164 210.786 59.92 210.474 60.616C210.186 61.312 209.73 61.912 209.106 62.416C208.482 62.92 207.678 63.316 206.694 63.604C205.71 63.868 204.522 64 203.13 64H194.814V44.704H203.094C204.462 44.704 205.686 44.86 206.766 45.172C207.87 45.46 208.734 45.964 209.358 46.684C210.006 47.38 210.33 48.34 210.33 49.564ZM207.666 58.348C207.666 57.244 207.246 56.452 206.406 55.972C205.566 55.492 204.33 55.252 202.698 55.252H197.982V61.444H202.77C204.354 61.444 205.566 61.216 206.406 60.76C207.246 60.28 207.666 59.476 207.666 58.348ZM207.126 49.96C207.126 49.048 206.79 48.388 206.118 47.98C205.47 47.548 204.402 47.332 202.914 47.332H197.982V52.624H202.338C203.898 52.624 205.086 52.408 205.902 51.976C206.718 51.544 207.126 50.872 207.126 49.96Z" fill="black"/>
</svg>
